/* XPM */
static char const * g_ppcFunlabIcon_xpm[] = {
"32 32 212 2",
"  	c None",
". 	c #001414",
"+ 	c #009090",
"@ 	c #007474",
"# 	c #002020",
"$ 	c #001D1D",
"% 	c #000000",
"& 	c #006C6C",
"* 	c #005F5F",
"= 	c #004646",
"- 	c #004545",
"; 	c #00CFCF",
"> 	c #003C3C",
", 	c #001313",
"' 	c #002D2D",
") 	c #005656",
"! 	c #009D9D",
"~ 	c #005959",
"{ 	c #000303",
"] 	c #000101",
"^ 	c #005858",
"/ 	c #008484",
"( 	c #004949",
"_ 	c #006F6F",
": 	c #006D6D",
"< 	c #001E1E",
"[ 	c #003939",
"} 	c #008C8C",
"| 	c #000202",
"1 	c #003030",
"2 	c #00ACAC",
"3 	c #00DDDD",
"4 	c #003535",
"5 	c #002E2E",
"6 	c #00C6C6",
"7 	c #009595",
"8 	c #004343",
"9 	c #008383",
"0 	c #001818",
"a 	c #000909",
"b 	c #007979",
"c 	c #004747",
"d 	c #002828",
"e 	c #009191",
"f 	c #004F4F",
"g 	c #00A0A0",
"h 	c #004444",
"i 	c #003E3E",
"j 	c #003737",
"k 	c #007575",
"l 	c #00CCCC",
"m 	c #006161",
"n 	c #002727",
"o 	c #006565",
"p 	c #004D4D",
"q 	c #00B7B7",
"r 	c #001F1F",
"s 	c #003636",
"t 	c #002222",
"u 	c #002C2C",
"v 	c #002929",
"w 	c #003131",
"x 	c #00D8D8",
"y 	c #001C1C",
"z 	c #008888",
"A 	c #005E5E",
"B 	c #00B5B5",
"C 	c #002A2A",
"D 	c #000D0D",
"E 	c #00A5A5",
"F 	c #008E8E",
"G 	c #006B6B",
"H 	c #005454",
"I 	c #001A1A",
"J 	c #004040",
"K 	c #000404",
"L 	c #000707",
"M 	c #000A0A",
"N 	c #00B1B1",
"O 	c #004B4B",
"P 	c #001212",
"Q 	c #00A3A3",
"R 	c #000E0E",
"S 	c #003A3A",
"T 	c #009E9E",
"U 	c #002323",
"V 	c #006767",
"W 	c #002F2F",
"X 	c #006666",
"Y 	c #007B7B",
"Z 	c #00E5E5",
"` 	c #009F9F",
" .	c #007D7D",
"..	c #003232",
"+.	c #006262",
"@.	c #00A6A6",
"#.	c #002121",
"$.	c #000C0C",
"%.	c #00EFEF",
"&.	c #00F3F3",
"*.	c #007A7A",
"=.	c #007C7C",
"-.	c #000B0B",
";.	c #002626",
">.	c #005353",
",.	c #00D4D4",
"'.	c #001010",
").	c #00E2E2",
"!.	c #00FCFC",
"~.	c #001111",
"{.	c #001515",
"].	c #00AFAF",
"^.	c #00ECEC",
"/.	c #00A8A8",
"(.	c #005D5D",
"_.	c #00DADA",
":.	c #005252",
"<.	c #00A4A4",
"[.	c #000505",
"}.	c #004C4C",
"|.	c #004A4A",
"1.	c #00DBDB",
"2.	c #009797",
"3.	c #006868",
"4.	c #007F7F",
"5.	c #001616",
"6.	c #008D8D",
"7.	c #00DCDC",
"8.	c #009999",
"9.	c #00F7F7",
"0.	c #00E9E9",
"a.	c #005C5C",
"b.	c #009A9A",
"c.	c #008080",
"d.	c #006060",
"e.	c #005555",
"f.	c #00B3B3",
"g.	c #00FEFE",
"h.	c #00B8B8",
"i.	c #003B3B",
"j.	c #002424",
"k.	c #00BEBE",
"l.	c #00DEDE",
"m.	c #00C3C3",
"n.	c #00F4F4",
"o.	c #005A5A",
"p.	c #003D3D",
"q.	c #003838",
"r.	c #00C7C7",
"s.	c #004141",
"t.	c #00FBFB",
"u.	c #00B4B4",
"v.	c #000808",
"w.	c #00D7D7",
"x.	c #007676",
"y.	c #00ABAB",
"z.	c #006E6E",
"A.	c #008989",
"B.	c #00E8E8",
"C.	c #00F2F2",
"D.	c #00BABA",
"E.	c #005757",
"F.	c #00EAEA",
"G.	c #004E4E",
"H.	c #006464",
"I.	c #008585",
"J.	c #008A8A",
"K.	c #006A6A",
"L.	c #009494",
"M.	c #007878",
"N.	c #000F0F",
"O.	c #008686",
"P.	c #00D1D1",
"Q.	c #004242",
"R.	c #001717",
"S.	c #007373",
"T.	c #00AEAE",
"U.	c #005050",
"V.	c #00F9F9",
"W.	c #002B2B",
"X.	c #008F8F",
"Y.	c #009393",
"Z.	c #00EBEB",
"`.	c #008282",
" +	c #00A2A2",
".+	c #00C2C2",
"++	c #00E0E0",
"@+	c #00FDFD",
"#+	c #00E4E4",
"$+	c #00C9C9",
"%+	c #00A7A7",
"&+	c #00BCBC",
"*+	c #00DFDF",
"=+	c #009C9C",
"-+	c #00C4C4",
";+	c #00F1F1",
">+	c #00CECE",
",+	c #00ADAD",
"'+	c #005151",
")+	c #003434",
"!+	c #00AAAA",
"~+	c #009B9B",
"{+	c #007272",
"]+	c #000606",
"^+	c #00B0B0",
"/+	c #00BFBF",
"(+	c #009696",
"_+	c #004848",
":+	c #00D0D0",
"<+	c #00F0F0",
"[+	c #002525",
"}+	c #00B9B9",
". + @ # $ % % % @ & * = - ; > , % % % ' ) ! ~ { ] ^ / = ( % % % ",
"_ : < [ } | % ] ] 1 2 3 + 4 % % % % % % , 5 6 7 8 9 0 a % % % % ",
"b c | % : [ % d - : e f g h i % % % % % j h k l m n % % % % % % ",
"o % % % a 4 p q r s % % t u } : | ] v w x t y < z A = % % % % % ",
"% % % % y B q C ] % % % % | D E f F G ' y % % % . H m I % % % % ",
"J % % % K H c K % a L % % M u N O b g P % % % % % Q $ % % % % % ",
"A R % % S T _ % % U 4 f V W o 4 | % X Y a % % % % Z % % % % t ` ",
" .% % ..6 =  .H % 1 +.@.T #.L % % % $.n L % % % % %.% a } &.*.L ",
"=.} -.^ 4 % M ;.j E $ D | >.9 K % % ,.% % % % % '.).!.9 -.% % % ",
"% k m _ y % ~. .> {.% % % L i P % % ].% % % +.^././.% % % % % % ",
"L (._.:.% % % *.<.[.% % 0 % % % % 5 }.|.1.2., % 3.4.% % % % % % ",
"5.6.7.C % % $.8.(.% % % 9.% % % W 0.Q 0 % % % % e a.% % % % % % ",
"# A : b.D % , r c.d.% % e.~.f.].$ g.% % % % % % h.i.% % % % % % ",
"].) [.}.j.5.F [ ;.) M +.k.U % % % ! % % % % % % l.y % % W *.m.n.",
"V % | o.e.p.f % % q.M r.% % % % e.s.% % % % % % t.G h.t.u._ u % ",
"v.% % 5.w.x.{.% % W | j % % % % q % % % { ~ y.t.n.z.d % % % % % ",
"% % % ] A.Q R % % % } % % % % % B.- ! C.D.: t |.q % % % % % % % ",
"% % % R E.|.M % % % D.% % 5 6.F.).& $ % % % % _ 2.% % % % % % % ",
"% % % V G.H.I.% % d J.3 m.K.5.x.q.% % % % % % L.M.% % % % % % % ",
"% % J z N.% O.( M.l.R % % % % P.% % % % % % % q o.% % % % % % % ",
"Q.{ 5 R.% % % ' % b.% % % % % ,.% % % % % % % x p.% % % % % % % ",
"S.K.T.R.% % {.W U.K % % % % S c.% % % % % % D V.#.% % % a W.O K.",
"X.L.' % % % % % ^.% % % % % Y.1 % % % % % % c Z.o `. +.+++@+#+$+",
"M.%+L % % % % % =.% % % % % B.L 1 ) =.g .+#+t.9.&+` 9 3.G.4 y K ",
"*+f.8.% % % % *.% $ ( @ =+-+V.;+>+,+6.z.'+)+9 !+% % % % % % % % ",
")+% ~+{+% ]+^+g.Z /+8.x.H Y 4.% % % % % % % (+6.% % % % % % % % ",
"d % P O._+n I +.% % % % % 2 v % % % % % % % B {+% % % % % % % % ",
"% % D - +.P g % % % % % % !.% % % % % % % % ,.^ % % % % % % % % ",
"% % % ;.;.% :+% % % % % j.u.% % % % % % % y ;+i % % % % % % % % ",
"% % % % % q.( % % % % % k K.% % % % % % % p.<+[+% % % % % % % % ",
"% % % % % -+% % % % % % m.t % % % % % % % a.,.D % % % % % % % % ",
"% % % % % f.% % % % % % %.% % % % % % % % *.}+% % % % % % % % % "};
